# xmcd
#
# Track frame offsets: 
#        150
#        11733
#        23979
#        37249
#        51004
#        63473
#        75079
#        85309
#        97984
#        112291
#        125354
#        136105
#        150039
#        160312
#        172795
#        185091
#        197549
#        210334
#        219509
#        228537
#        239612
#        251831
#        264535
#
# Disc length: 3707 seconds
#
# Revision: 0
# Processed by: cddbd v1.5.2PL0 Copyright (c) Steve Scherf et al.
# Submitted via: ExactAudioCopyFreeDBPlugin 1.0
#
DISCID=340e7917
DTITLE=Little Walter - Rock Bottom [CD1)
DYEAR=2011
DGENRE=Blues
TTITLE0=My Babe
TTITLE1=Juke
TTITLE2=Teenage Beat
TTITLE3=You're So Fine
TTITLE4=Tell Me Mama
TTITLE5=Too Late
TTITLE6=I Hate To See You Go
TTITLE7=Off The Wall
TTITLE8=Sad Hours
TTITLE9=Mean Old World
TTITLE10=Who
TTITLE11=Blues With A Feeling
TTITLE12=Rock Bottom
TTITLE13=Oh Baby
TTITLE14=Last Night
TTITLE15=Key To The Highway
TTITLE16=Everything's Gonna Be Alright
TTITLE17=I Had My Fun
TTITLE18=Crazy Mixed Up World
TTITLE19=Break It Up
TTITLE20=Boom Boom Out Go The Lights
TTITLE21=Back Track
TTITLE22=Blue Midnight
EXTD=
EXTT0=
EXTT1=
EXTT2=
EXTT3=
EXTT4=
EXTT5=
EXTT6=
EXTT7=
EXTT8=
EXTT9=
EXTT10=
EXTT11=
EXTT12=
EXTT13=
EXTT14=
EXTT15=
EXTT16=
EXTT17=
EXTT18=
EXTT19=
EXTT20=
EXTT21=
EXTT22=
PLAYORDER=
